<svg xmlns="http://www.w3.org/2000/svg" viewBox="0 0 1000 1000"><defs><style>.cls-1{fill:#fff;}.cls-2{fill:#c00;}</style></defs><g id="Layer_2" data-name="Layer 2"><g id="Layer_3" data-name="Layer 3"><rect class="cls-1" width="1000" height="1000" rx="132.79"/><path class="cls-2" d="M288.13,306.13q14.28-8.92,23.23.45,27.24,16.53,15.18,35.29Q316.27,349,293.49,349,276.06,344.57,277,365.1q-.45,25,20.55,13,21.89-7.59,46-2.24,22.34,7.6,2.23,27.7l-38.42,9.38c-7.14.3-11.32,3-12.5,8.05q3.12,6.26,18.76,12.95,30.38,18.33,71.48,54.5a586.27,586.27,0,0,1,80.41,52.72q11.61,11.16-1.79,10.27-26.81-3.57-53.61,7.6-12.51,1.34-35.73-17a373.27,373.27,0,0,1-64.78-67L293,458q-7.6-8-15.19-8.48-7.16,2.23-7.15,8.48,1.79,34.85-6.7,50.49-6.25,8.94-6.7,10.72.43,6.25,13.85,5.36a33,33,0,0,0,17.87-4q12.5-9.83,20.1-12.06,6.7-.45,15.64,9.82a68.52,68.52,0,0,1,19.65,35.3,278.35,278.35,0,0,1,3.13,92.92q-14.3,45.56-59,55.84-6.26-1.35-5.36-9.38.45-13-14.74-18.32-21.45-4.47-39.31,1.79-13.41,1.34-19.66,13.85-4.47,8.48-10.27,4.91Q184,683.18,179.57,659.05q-6.25-23.22,0-90.68,2.69-29.49,11.17-42.44,5.81-12.06,18.76-.45a36.05,36.05,0,0,0,19.66,2.68q15.18-3.12,10.72-16.53A263.38,263.38,0,0,1,236.75,471q-8.94-8-23.23,9.38Q135.79,555,83.52,586.68q-13.86,8-6.7-6.7Q113,520.58,188.5,458q15.19-11.61,16.09-19.21-6.27-4.46-19.66,3.58-21.45,10.73-30.38,9.38-18.77-10.27-19.65-29,3.12-12.94,22.78-13,26.81-4,53.61-10.28,16.52-2.24,22.78-7.59,5.35-6.26,7.59-28.15-1.78-9.37-14.29-4.46A120.83,120.83,0,0,1,185.82,362q-13.4-2.24-.44-13.41a114.26,114.26,0,0,1,31.27-17q17.86-5.81,35.74-9.83A370.46,370.46,0,0,0,288.13,306.13ZM275.62,540.22q-21.45,2.68-44.23,14.3-23.68,8.94-18.76,28.59,2.22,2.68,16.08.89a167.69,167.69,0,0,1,25.46-6.25q19.22.9,24.57,17.87.45,4.47-4.46,7.59t-20.55,4.92q-19.22,3.58-38.42,8.93-6.27,5.82-4.92,21,.9,18.32,19.66,11.61,24.12-4.47,57.63-4.91c3.87-.89,6.55-1.94,8-3.13q3.12-1.78,3.57-15.19L300.63,555Q294.38,535.75,275.62,540.22Z"/><path class="cls-2" d="M558.4,438.37q21.89-8,46,18.31,5.8,10.72-2.68,21.45-5.81,12.51-14.74,5.36-14.29-15.63-23.23-20.1-14.29-7.14-10.27-19.66A9.67,9.67,0,0,1,558.4,438.37Zm35.74,114.81q8.93-13.41,9.38-10.28l-5.81,23.23q-8.49,38.86,1.34,56.74,9.39,13,10.28,20.55a32.42,32.42,0,0,1-4.47,15.19q-8.49,18.32-24.12,10.27-11.62-7.14-17.87-25-4.92-13.41-4.47-35.3.89-8.93,6.7-18.31Q576.71,580.44,594.14,553.18ZM579.4,335.62q8.93-9.39,25.46-5.81,18.32,1.79,35.29,21.44,14.75,21.45-2.68,39.32-13.4,8.94-32.16-13.85-5.82-8.94-21.89-19.66Q573.13,344.57,579.4,335.62ZM790.7,311.5q7.14-26.36,29-2.69,6.71,9.84,6.25,19.66,0,11.17,10.28,19.66,19.2,11.16,10.27,25.91-5.35,9.82-21,11.17-13.41,4.47-15.64,23.23-8,18.31,12.51,17.42,35.73-4.46,53.61-3.57,16.51,4,22.78,19.21,9.39,25.46-20.1,22.78-19.22-1.78-38.42-1.79-13-2.24-16.53,4.47a16.16,16.16,0,0,0,5.36,9.83q47.79,49.14,83.54,80.41,12.51,12.06,13,14.29-1.35,1.35-14.75.9-16.53-2.24-25.91,2.68-21.44,9.82-42.44-22.78-10.28-20.12-20.1-18.32-1.33,1.78-3.13,10.72-2.24,15.64-13.4,33.51a13.52,13.52,0,0,0,1.34,8.93q0,4.47-8.93,8.94Q760.77,616.62,726.82,618q-20.55,2.24-12.51,19.2,8.49,14.75,24.57,17.43,56.29,6.69,103.64-8,21.45-5.82,25-23.68,4.47-14.29,8.49-1.79,4.46,10.29,16.53,17,6.24,3.57,6.7,5.81a154,154,0,0,0-13.85,21.44,46.21,46.21,0,0,1-16.08,13q-42.89,13.41-96.05,12.51-36.64,1.79-60.31-8.93-23.24-12.51-25-41.1a234.74,234.74,0,0,1,3.13-71.93q8-19.2-3.13-27.25-5.81-.43-13,12.07-14.31,21.89-41.1,49.58-13.41,12.51-7.6-1.78,22.79-54.06,65.67-109.9.45-6.7-7.59-4.47a93.58,93.58,0,0,0-13.4,6.7q-19.22,8.49-30.83,2.68-23.68-15.18-5.81-30.37,14.29-11.16,53.61-18.32,10.27-1.33,15.64-5.81,5.8-6.26,3.13-24.57,6.69-17-14.75-15.63-16.08,5.81-26.35-17-4.92-13,12.06-16.53l17.87-2.68q11.16,0,13.85-12.06a90.93,90.93,0,0,1,11.16-35.74q8.94-12.5,18.32-5.36,5.36,4.47,5.36,19.65l-1.79,10.73q-5.81,16.08,13.85,14.74,23.24,1.33,30.38-11.62a119.52,119.52,0,0,0,0-20.55A36.46,36.46,0,0,1,790.7,311.5ZM776.85,468.75q-44.22-8.49-68.79,38.42c-1.5,3.57-2.09,6.1-1.79,7.59q.88,3.59,12.51,1.34,45.11-8.93,92.47,2.23c1.79-1.18,2.68-2.38,2.68-3.57Q800.54,482.6,776.85,468.75Zm9.83,60.75q-13-5.36-27.7,11.17Q750,549.61,728.61,559q-10.29,11.63-6.26,25.46,9.39,3.13,24.57-2.23l17.87-5.36q12.94-2.68,19.21-12.51,2.24-6.26,4.47-22.79Q788.47,530.85,786.68,529.5ZM751.84,394.59q-20.12,2.24-16.53,24.12-2.25,12.06,4.46,17,8.06,1.33,29-4.47,13.41-7.59,13-30.82,0-4.92-4.92-7.6A60.83,60.83,0,0,0,751.84,394.59Z"/></g></g></svg>