<svg xmlns="http://www.w3.org/2000/svg" viewBox="0 0 2644.8 56.17"><defs><style>.cls-1{fill:none;stroke:#fff;stroke-miterlimit:10;stroke-width:8px;}</style></defs><g id="Layer_2" data-name="Layer 2"><g id="Layer_2-2" data-name="Layer 2"><polyline class="cls-1" points="22.51 28.09 43.79 28.09 43.79 52.17 4 52.17 4 4 64.04 4 64.04 52.17 124.08 52.17 124.08 4 84.3 4 84.3 28.09 105.57 28.09"/><polyline class="cls-1" points="162.33 28.09 183.6 28.09 183.6 52.17 143.82 52.17 143.82 4 203.86 4 203.86 52.17 263.9 52.17 263.9 4 224.12 4 224.12 28.09 245.39 28.09"/><polyline class="cls-1" points="302.15 28.09 323.42 28.09 323.42 52.17 283.63 52.17 283.63 4 343.68 4 343.68 52.17 403.72 52.17 403.72 4 363.93 4 363.93 28.09 385.21 28.09"/><polyline class="cls-1" points="441.96 28.09 463.24 28.09 463.24 52.17 423.45 52.17 423.45 4 483.5 4 483.5 52.17 543.54 52.17 543.54 4 503.75 4 503.75 28.09 525.03 28.09"/><polyline class="cls-1" points="581.78 28.09 603.06 28.09 603.06 52.17 563.27 52.17 563.27 4 623.31 4 623.31 52.17 683.36 52.17 683.36 4 643.57 4 643.57 28.09 664.85 28.09"/><polyline class="cls-1" points="721.6 28.09 742.88 28.09 742.88 52.17 703.09 52.17 703.09 4 763.13 4 763.13 52.17 823.17 52.17 823.17 4 783.39 4 783.39 28.09 804.66 28.09"/><polyline class="cls-1" points="861.42 28.09 882.69 28.09 882.69 52.17 842.91 52.17 842.91 4 902.95 4 902.95 52.17 962.99 52.17 962.99 4 923.2 4 923.2 28.09 944.48 28.09"/><polyline class="cls-1" points="1001.23 28.09 1022.51 28.09 1022.51 52.17 982.72 52.17 982.72 4 1042.77 4 1042.77 52.17 1102.81 52.17 1102.81 4 1063.02 4 1063.02 28.09 1084.3 28.09"/><polyline class="cls-1" points="1141.05 28.09 1162.33 28.09 1162.33 52.17 1122.54 52.17 1122.54 4 1182.58 4 1182.58 52.17 1242.63 52.17 1242.63 4 1202.84 4 1202.84 28.09 1224.12 28.09"/><polyline class="cls-1" points="1280.87 28.09 1302.15 28.09 1302.15 52.17 1262.36 52.17 1262.36 4 1322.4 4 1322.4 52.17 1382.44 52.17 1382.44 4 1342.66 4 1342.66 28.09 1363.93 28.09"/><polyline class="cls-1" points="1420.69 28.09 1441.96 28.09 1441.96 52.17 1402.18 52.17 1402.18 4 1462.22 4 1462.22 52.17 1522.26 52.17 1522.26 4 1482.47 4 1482.47 28.09 1503.75 28.09"/><polyline class="cls-1" points="1560.51 28.09 1581.78 28.09 1581.78 52.17 1541.99 52.17 1541.99 4 1602.04 4 1602.04 52.17 1662.08 52.17 1662.08 4 1622.29 4 1622.29 28.09 1643.57 28.09"/><polyline class="cls-1" points="1700.32 28.09 1721.6 28.09 1721.6 52.17 1681.81 52.17 1681.81 4 1741.85 4 1741.85 52.17 1801.9 52.17 1801.9 4 1762.11 4 1762.11 28.09 1783.39 28.09"/><polyline class="cls-1" points="1840.14 28.09 1861.42 28.09 1861.42 52.17 1821.63 52.17 1821.63 4 1881.67 4 1881.67 52.17 1941.71 52.17 1941.71 4 1901.93 4 1901.93 28.09 1923.2 28.09"/><polyline class="cls-1" points="1979.96 28.09 2001.23 28.09 2001.23 52.17 1961.45 52.17 1961.45 4 2021.49 4 2021.49 52.17 2081.53 52.17 2081.53 4 2041.74 4 2041.74 28.09 2063.02 28.09"/><polyline class="cls-1" points="2119.78 28.09 2141.05 28.09 2141.05 52.17 2101.26 52.17 2101.26 4 2161.31 4 2161.31 52.17 2221.35 52.17 2221.35 4 2181.56 4 2181.56 28.09 2202.84 28.09"/><polyline class="cls-1" points="2259.59 28.09 2280.87 28.09 2280.87 52.17 2241.08 52.17 2241.08 4 2301.13 4 2301.13 52.17 2361.17 52.17 2361.17 4 2321.38 4 2321.38 28.09 2342.66 28.09"/><polyline class="cls-1" points="2399.41 28.09 2420.69 28.09 2420.69 52.17 2380.9 52.17 2380.9 4 2440.94 4 2440.94 52.17 2500.99 52.17 2500.99 4 2461.2 4 2461.2 28.09 2482.47 28.09"/><polyline class="cls-1" points="2539.23 28.09 2560.51 28.09 2560.51 52.17 2520.72 52.17 2520.72 4 2580.76 4 2580.76 52.17 2640.8 52.17 2640.8 4 2601.01 4 2601.01 28.09 2622.29 28.09"/><polyline class="cls-1" points="1700.32 28.09 1721.6 28.09 1721.6 52.17 1681.81 52.17 1681.81 4 1741.85 4 1741.85 52.17 1801.9 52.17 1801.9 4 1762.11 4 1762.11 28.09 1783.39 28.09"/><polyline class="cls-1" points="1840.14 28.09 1861.42 28.09 1861.42 52.17 1821.63 52.17 1821.63 4 1881.67 4 1881.67 52.17 1941.71 52.17 1941.71 4 1901.93 4 1901.93 28.09 1923.2 28.09"/></g></g></svg>